<?xml version="1.0" encoding="utf-8"?>
<!-- Generator: Adobe Illustrator 27.5.0, SVG Export Plug-In . SVG Version: 6.00 Build 0)  -->
<svg version="1.1" xmlns="http://www.w3.org/2000/svg" xmlns:xlink="http://www.w3.org/1999/xlink" x="0px" y="0px"
	 viewBox="0 0 500 500" style="enable-background:new 0 0 500 500;" xml:space="preserve">
<g id="BACKGROUND">
	<rect style="fill:#FFFBF8;" width="500" height="500"/>
</g>
<g id="OBJECTS">
	<g>
		<g>
			<g>
				<path style="fill:#D3F4E8;" d="M32.825,265.074c10.42,0.14,19.087-8.176,26.024-16.436c4.607-5.486,17.255-26.661,7.107-30.58
					c-11.169-4.314-15.987,17.479-18.827,24.213c-2.856,6.773-9.133,11.016-14.675,15.536c-1.006,0.82-2.03,1.705-2.572,2.923
					c-0.542,1.218-0.447,2.863,0.551,3.694C31.092,264.973,31.986,265.062,32.825,265.074z"/>
			</g>
			<g>
				<path style="fill:#D3F4E8;" d="M453.193,292.77c22.502-26.3,27.554-61.007,15.071-92.982
					c-8.997-23.046-27.458-37.301-48.546-46.64c-20.148-8.922-46.755-10.737-62.349-28.016
					c-12.73-14.106-18.286-32.901-33.321-44.926c-33.283-26.62-78.515-26.717-114.544-6.238
					c-36.082,20.509-48.136,66.493-86.865,82.13c-21.229,8.571-42.51,16.786-47.08,43.446c-2.284,13.333,6.644,29.127,1.631,41.831
					c-6.249,15.837-20.999,25.792-32.25,37.9c-12.27,13.205-19.349,29.475-19.839,47.562
					c-1.512,55.845,47.313,80.419,101.772,91.405c54.766,11.048,111.49,15.006,167.211,9.997
					c42.592-3.828,112.376-9.408,140.778-47.18c11.895-15.818,2.935-36.551,2.325-54.304
					C436.658,311.371,443.877,303.659,453.193,292.77z"/>
			</g>
			<g>
				<path style="fill:#D3F4E8;" d="M373.131,125.448c5.026,2.849,10.504,4.664,15.943,6.462c0,0,0.007,0.002,0.021,0.007
					c5.565,1.839,11.13,3.679,16.694,5.518c2.842,0.939,6.559,3.011,9.539,3.153c0.466,0.022,1.281,0.694,1.731,0.591
					c6.42-1.476-9.209-9.546-10.951-10.585c-4.639-2.766-9.279-5.532-13.918-8.298c-6.941-4.138-13.593-9.05-18.638-16.013
					c-3.957-5.46-19.065-26.038-24.96-15.318c-2.537,4.614,2.62,11.045,4.97,14.814
					C358.568,113.804,365.083,120.885,373.131,125.448z"/>
			</g>
			<g>
				<path style="fill:#D3F4E8;" d="M448.02,305.424c-3.261,4.516-5.361,9.983-6.007,15.633c-0.367,3.21-0.263,6.484,0.365,9.65
					c0.237,1.194,0.793,2.611,1.937,2.707c1.286,0.108,2.013-1.519,2.283-2.859c0.713-3.54,0.917-7.331,2.739-10.391
					c1.595-2.678,4.216-4.427,6.607-6.324c2.39-1.896,4.749-4.242,5.366-7.342c0.396-1.988-0.038-4.199-1.331-5.697
					C455.716,295.862,450.594,301.86,448.02,305.424z"/>
			</g>
			<g>
				<ellipse style="fill:#D3F4E8;" cx="465.063" cy="293.426" rx="4.259" ry="4.524"/>
			</g>
			<g>
				<path style="fill:#D3F4E8;" d="M172.743,89.409c4.487-3.418,7.987-7.933,11.842-12.051c7.101-7.585,15.567-13.874,24.828-18.575
					c4.632-2.351,9.465-4.306,14.431-5.83c3.285-1.008,11.216-1.295,12.881-4.244c0.338-0.598-16.768-0.414-18.19-0.167
					c-10.277,1.783-20.455,4.953-29.445,10.331c-9.85,5.892-17.023,15.304-23.555,24.741c-1.23,1.777-2.493,4.019-1.566,5.971
					C165.414,92.627,170.064,91.449,172.743,89.409z"/>
			</g>
			<g>
				<path style="fill:#D3F4E8;" d="M155.565,108.495c3.3,0,5.975-2.675,5.975-5.975c0-3.3-2.675-5.975-5.975-5.975
					s-5.975,2.675-5.975,5.975C149.59,105.82,152.265,108.495,155.565,108.495z"/>
			</g>
			<g>
				<path style="fill:#D3F4E8;" d="M245.865,441.103c-11.883,0.042-23.768-0.311-35.628-1.056
					c-23.981-1.506-47.407-5.335-71.076-9.181c19.317,9.477,41.919,16.374,63.211,19.383c26.665,3.768,54.341,0.111,79.112-10.454
					C265.698,441.669,255.552,441.069,245.865,441.103z"/>
			</g>
			<g>
				<path style="fill:#D3F4E8;" d="M119.865,421.669c-2.854,0-5.167,2.313-5.167,5.167c0,2.853,2.313,5.167,5.167,5.167
					c2.853,0,5.167-2.313,5.167-5.167C125.031,423.983,122.718,421.669,119.865,421.669z"/>
			</g>
		</g>
		<g>
			<path style="fill:#FEFEFE;" d="M433.779,185.352H322.327c-1.374,0-2.488,1.114-2.488,2.488v83.028
				c0,1.374,1.114,2.488,2.488,2.488h111.452c1.374,0,2.488-1.114,2.488-2.488V187.84
				C436.266,186.466,435.153,185.352,433.779,185.352z"/>
			<path style="fill:#92C8EF;" d="M436.266,194.531v-6.691c0-1.374-1.114-2.488-2.488-2.488H322.327
				c-1.374,0-2.488,1.114-2.488,2.488v6.691H436.266z"/>
			<circle style="fill:#F96484;" cx="429.502" cy="189.941" r="2.539"/>
			<rect x="406.591" y="198.34" style="fill:#B9DDEF;" width="21.992" height="25.093"/>
			<rect x="379.807" y="198.34" style="fill:#B9DDEF;" width="21.992" height="46.141"/>
			<rect x="341.258" y="198.34" style="fill:#B9DDEF;" width="34.602" height="46.141"/>
			<rect x="406.591" y="228.226" style="fill:#B9DDEF;" width="21.992" height="3.009"/>
			<rect x="406.591" y="234.711" style="fill:#B9DDEF;" width="21.992" height="3.009"/>
			<rect x="406.591" y="241.195" style="fill:#B9DDEF;" width="21.992" height="3.009"/>
			<rect x="338.242" y="249.936" style="fill:#B9DDEF;" width="90.341" height="16.103"/>
		</g>
		<g>
			<path style="fill:#66D15A;" d="M397.489,277.106c0,9.431-6.382,17.077-6.382,17.077s-6.382-7.645-6.382-17.077
				c0-9.431,6.382-17.077,6.382-17.077S397.489,267.675,397.489,277.106z"/>
			<rect x="390.595" y="267.999" style="fill:#53AF46;" width="1.022" height="46.903"/>
			<path style="fill:#66D15A;" d="M410.018,289.996c-3.657,8.693-12.505,13.265-12.505,13.265s-2.918-9.522,0.74-18.215
				c3.657-8.693,12.505-13.265,12.505-13.265S413.676,281.303,410.018,289.996z"/>
			
				<rect x="398.062" y="277.291" transform="matrix(0.9217 0.3878 -0.3878 0.9217 147.8164 -131.03)" style="fill:#53AF46;" width="1.022" height="46.904"/>
			<path style="fill:#66D15A;" d="M371.949,290.28c3.657,8.693,12.505,13.265,12.505,13.265s2.918-9.522-0.74-18.215
				c-3.657-8.693-12.505-13.265-12.505-13.265S368.292,281.587,371.949,290.28z"/>
			
				<rect x="382.883" y="277.575" transform="matrix(-0.9217 0.3878 -0.3878 -0.9217 853.524 429.8174)" style="fill:#53AF46;" width="1.022" height="46.904"/>
			<polygon style="fill:#ED4D2E;" points="391.107,310.447 371.835,310.975 377.679,339.576 391.107,339.576 404.534,339.576 
				410.378,310.975 			"/>
			<path style="fill:#ED4D2E;" d="M411.272,311.038h-40.33c-1.423,0-2.587-1.164-2.587-2.587l0,0c0-1.423,1.164-2.587,2.587-2.587
				h40.33c1.423,0,2.587,1.164,2.587,2.587l0,0C413.858,309.874,412.694,311.038,411.272,311.038z"/>
		</g>
		<g>
			<polygon style="fill:#1E4960;" points="179.444,243.475 124.461,216.699 70.049,244.619 70.081,247.628 73.697,246.395 
				125.033,271.396 175.147,245.68 179.475,246.484 			"/>
			<polygon style="fill:#2E5875;" points="124.492,219.707 70.081,247.628 125.064,274.404 179.475,246.484 			"/>
			<g>
				<path style="fill:#3C718E;" d="M124.709,240.473c-15.406,0.161-27.864,3.275-27.826,6.955l0.246,23.553l55.791-0.583
					l-0.246-23.553C152.636,243.165,140.116,240.312,124.709,240.473z"/>
				<path style="fill:#2E5875;" d="M152.921,270.397c0.038,3.68-12.42,6.794-27.826,6.955s-27.927-2.691-27.965-6.371
					c-0.039-3.68,12.42-6.794,27.826-6.955C140.362,263.865,152.882,266.717,152.921,270.397z"/>
			</g>
			<polygon style="fill:#F2A433;" points="150.671,254.476 148.57,254.498 148.294,228.018 150.404,228.973 			"/>
			
				<rect x="147.604" y="249.982" transform="matrix(0.9999 -0.0105 0.0105 0.9999 -2.6439 1.5787)" style="fill:#DB881B;" width="4.239" height="7.545"/>
		</g>
		<g>
			<g>
				<path style="fill:#5B83BD;" d="M84.382,326.93c0-4.554,3.705-8.259,8.259-8.259H201.76v-4.387H81.194
					c-6.984,0-12.645,5.662-12.645,12.645v0c0,6.984,5.662,12.645,12.645,12.645H201.76v-4.387H92.641
					C88.087,335.189,84.382,331.484,84.382,326.93z"/>
				<path style="fill:#4673AA;" d="M75.504,326.93L75.504,326.93c0-6.984,5.661-12.646,12.646-12.646h-6.956
					c-6.984,0-12.645,5.662-12.645,12.645v0c0,6.984,5.662,12.645,12.645,12.645h6.956C81.166,339.576,75.504,333.914,75.504,326.93
					z"/>
				<path style="fill:#5B83BD;" d="M84.382,326.93c0-4.554,3.705-8.259,8.259-8.259h6.956H201.76v-4.387H88.15
					c-6.984,0-12.646,5.662-12.646,12.645v0c0,6.984,5.661,12.645,12.646,12.645h113.61v-4.387H99.597h-6.956
					C88.087,335.189,84.382,331.484,84.382,326.93z"/>
				<path style="fill:#EFD4AC;" d="M192.014,326.93c0-4.554,3.705-8.259,8.259-8.259H92.641c-4.554,0-8.259,3.705-8.259,8.259
					s3.705,8.258,8.259,8.258h107.631C195.718,335.189,192.014,331.484,192.014,326.93z"/>
				<path style="fill:#EAC89B;" d="M190.416,322.839h-95.73c-0.307,0-0.558-0.251-0.558-0.558l0,0c0-0.307,0.251-0.558,0.558-0.558
					h95.73c0.307,0,0.558,0.251,0.558,0.558l0,0C190.974,322.588,190.723,322.839,190.416,322.839z"/>
				<path style="fill:#EAC89B;" d="M158.989,326.93H89.666c-0.409,0-0.744-0.335-0.744-0.744l0,0c0-0.409,0.335-0.744,0.744-0.744
					h69.323c0.409,0,0.744,0.335,0.744,0.744l0,0C159.732,326.595,159.398,326.93,158.989,326.93z"/>
				<path style="fill:#EAC89B;" d="M188.929,331.393H130.02c-0.307,0-0.558-0.251-0.558-0.558l0,0c0-0.307,0.251-0.558,0.558-0.558
					h58.909c0.307,0,0.558,0.251,0.558,0.558l0,0C189.487,331.142,189.235,331.393,188.929,331.393z"/>
				<path style="opacity:0.58;fill:#EFD4AC;" d="M92.641,322.729h100.525c1.44-2.427,4.086-4.058,7.106-4.058H92.641
					c-4.554,0-8.259,3.705-8.259,8.259c0,0.7,0.088,1.379,0.253,2.029C85.542,325.383,88.787,322.729,92.641,322.729z"/>
			</g>
			<g>
				<path style="fill:#5B83BD;" d="M108.168,301.677c0-4.554,3.705-8.259,8.259-8.259h67.831v-4.387H71.433
					c-6.984,0-12.645,5.662-12.645,12.646l0,0c0,6.984,39.208,12.646,46.192,12.646h79.278v-4.387h-67.831
					C111.873,309.935,108.168,306.231,108.168,301.677z"/>
				<path style="fill:#EF8229;" d="M99.29,301.677L99.29,301.677c0-6.984,5.662-12.646,12.645-12.646H71.433
					c-6.984,0-12.645,5.662-12.645,12.646l0,0c0,6.984,5.661,12.646,12.645,12.646h40.502
					C104.952,314.322,99.29,308.66,99.29,301.677z"/>
				<path style="fill:#F2A433;" d="M108.168,301.677c0-4.554,3.705-8.259,8.259-8.259h6.956h60.875v-4.387h-72.323
					c-6.984,0-12.645,5.662-12.645,12.646l0,0c0,6.984,5.662,12.646,12.645,12.646h72.323v-4.387h-60.875h-6.956
					C111.873,309.935,108.168,306.231,108.168,301.677z"/>
				<path style="fill:#EFD4AC;" d="M174.512,301.677c0-4.554,3.705-8.259,8.258-8.259h-66.343c-4.554,0-8.259,3.705-8.259,8.259
					s3.705,8.259,8.259,8.259h66.343C178.216,309.935,174.512,306.231,174.512,301.677z"/>
				<path style="fill:#EAC89B;" d="M172.914,297.585h-54.442c-0.307,0-0.558-0.251-0.558-0.558l0,0c0-0.307,0.251-0.558,0.558-0.558
					h54.442c0.307,0,0.558,0.251,0.558,0.558l0,0C173.472,297.334,173.221,297.585,172.914,297.585z"/>
				<path style="fill:#EAC89B;" d="M122.374,301.677h-8.922c-0.409,0-0.744-0.335-0.744-0.744l0,0c0-0.409,0.335-0.744,0.744-0.744
					h8.922c0.409,0,0.744,0.335,0.744,0.744l0,0C123.118,301.342,122.783,301.677,122.374,301.677z"/>
				<path style="fill:#EAC89B;" d="M171.427,306.14h-13.991c-0.307,0-0.558-0.251-0.558-0.558l0,0c0-0.307,0.251-0.558,0.558-0.558
					h13.991c0.307,0,0.558,0.251,0.558,0.558l0,0C171.985,305.889,171.734,306.14,171.427,306.14z"/>
				<path style="opacity:0.58;fill:#EFD4AC;" d="M116.427,297.476h59.237c1.44-2.427,4.086-4.058,7.106-4.058h-66.343
					c-4.554,0-8.259,3.705-8.259,8.259c0,0.7,0.088,1.38,0.253,2.029C109.328,300.13,112.573,297.476,116.427,297.476z"/>
			</g>
			<g>
				<path style="fill:#5B83BD;" d="M127.184,279.667c0-3.489,2.838-6.327,6.327-6.327h56.437v-3.361H86.138
					c-5.351,0-9.688,4.338-9.688,9.688v0c0,5.35,42.94,9.688,48.291,9.688h65.207v-3.361h-56.437
					C130.022,285.994,127.184,283.155,127.184,279.667z"/>
				<path style="fill:#ED4D2E;" d="M120.382,279.667L120.382,279.667c0-5.35,4.337-9.688,9.688-9.688H86.138
					c-5.351,0-9.688,4.338-9.688,9.688v0c0,5.35,4.337,9.688,9.688,9.688h43.932C124.72,289.354,120.382,285.017,120.382,279.667z"
					/>
				<path style="fill:#FF5E48;" d="M127.184,279.667c0-3.489,2.838-6.327,6.327-6.327h24.442h31.995v-3.361H130.07
					c-5.351,0-9.688,4.338-9.688,9.688v0c0,5.35,4.337,9.688,9.688,9.688h59.878v-3.361h-31.995h-24.442
					C130.022,285.994,127.184,283.155,127.184,279.667z"/>
				<path style="fill:#EFD4AC;" d="M182.481,279.667c0-3.489,2.838-6.327,6.327-6.327h-55.297c-3.489,0-6.327,2.838-6.327,6.327
					c0,3.489,2.838,6.327,6.327,6.327h55.297C185.319,285.994,182.481,283.155,182.481,279.667z"/>
				<path style="fill:#EAC89B;" d="M181.257,276.532h-46.179c-0.235,0-0.427-0.192-0.427-0.427l0,0c0-0.235,0.192-0.427,0.427-0.427
					h46.179c0.235,0,0.427,0.192,0.427,0.427l0,0C181.685,276.34,181.492,276.532,181.257,276.532z"/>
				<path style="fill:#EAC89B;" d="M157.18,279.667h-25.948c-0.313,0-0.57-0.257-0.57-0.57l0,0c0-0.313,0.256-0.57,0.57-0.57h25.948
					c0.313,0,0.57,0.257,0.57,0.57l0,0C157.75,279.41,157.493,279.667,157.18,279.667z"/>
				<path style="fill:#EAC89B;" d="M180.117,283.086h-10.719c-0.235,0-0.427-0.192-0.427-0.427l0,0c0-0.235,0.192-0.427,0.427-0.427
					h10.719c0.235,0,0.427,0.192,0.427,0.427l0,0C180.545,282.893,180.352,283.086,180.117,283.086z"/>
				<path style="opacity:0.58;fill:#EFD4AC;" d="M133.511,276.448h49.853c1.103-1.859,3.13-3.109,5.444-3.109h-55.297
					c-3.489,0-6.327,2.838-6.327,6.327c0,0.536,0.068,1.057,0.194,1.554C128.072,278.481,130.558,276.448,133.511,276.448z"/>
			</g>
		</g>
		<path style="fill:#79C2E2;" d="M272.473,287.205l-12.608,2.425l-12.608-2.425c1.94,27.64-15.032,44.127-15.032,44.127h27.64h27.64
			C287.506,331.332,270.534,314.845,272.473,287.205z"/>
		<path style="fill:#58A7BC;" d="M272.473,287.205l-12.608,2.425l-12.608-2.425c0.245,3.494,0.187,6.809-0.099,9.936
			c5.631,0.611,16.706,2.793,27.346,10.54C272.87,301.808,271.93,294.944,272.473,287.205z"/>
		<path style="fill:#94D4FF;" d="M340.717,169.078H174.031c-2.597,0-4.721,2.125-4.721,4.721v113.573
			c0,2.597,2.125,4.721,4.721,4.721h166.687c2.597,0,4.721-2.125,4.721-4.721V173.799
			C345.438,171.203,343.314,169.078,340.717,169.078z"/>
		<path style="fill:#184F7C;" d="M172.79,274.624V174.602c0-1.112,0.89-2.014,1.988-2.014H339.97c1.098,0,1.988,0.902,1.988,2.014
			v100.021c0,1.112-0.89,2.014-1.988,2.014H174.778C173.68,276.637,172.79,275.736,172.79,274.624z"/>
		<path style="fill:#E2F2F7;" d="M178.149,269.477v-89.729c0-0.946,0.741-1.712,1.655-1.712h155.14c0.914,0,1.655,0.767,1.655,1.712
			v89.729c0,0.946-0.741,1.712-1.655,1.712h-155.14C178.89,271.19,178.149,270.423,178.149,269.477z"/>
		<path style="fill:#184F7C;" d="M289.445,339.576h-59.159c-2.667,0-4.849-2.182-4.849-4.849v0c0-2.667,2.182-4.849,4.849-4.849
			h59.159c2.667,0,4.849,2.182,4.849,4.849v0C294.294,337.393,292.112,339.576,289.445,339.576z"/>
		<g>
			<polygon style="fill:#B5DEE8;" points="209.128,262.766 204.283,262.766 207.764,169.053 			"/>
			<polygon style="fill:#B5DEE8;" points="305.607,262.766 310.452,262.766 306.971,169.053 			"/>
			<rect x="207.839" y="127.52" style="fill:#FFFFFF;" width="99.07" height="135.247"/>
			<polygon style="fill:#E85049;" points="263.524,273.177 257.214,268.638 251.224,273.177 251.224,253.988 263.524,253.988 			"/>
			
				<ellipse transform="matrix(0.1609 -0.987 0.987 0.1609 -25.5242 459.3492)" style="fill:#FFBE1A;" cx="257.374" cy="244.685" rx="13.386" ry="13.386"/>
			<g>
				<path style="fill:#FFE4A9;" d="M257.374,254.986c-5.68,0-10.301-4.621-10.301-10.301c0-5.68,4.621-10.301,10.301-10.301
					c5.68,0,10.301,4.621,10.301,10.301C267.675,250.365,263.054,254.986,257.374,254.986z M257.374,235.017
					c-5.331,0-9.668,4.337-9.668,9.668c0,5.331,4.337,9.668,9.668,9.668c5.331,0,9.668-4.337,9.668-9.668
					C267.042,239.354,262.705,235.017,257.374,235.017z"/>
			</g>
			
				<text transform="matrix(1 0 0 1 223.7663 145.9853)" style="fill:#639DD6; font-family:'Antonio-Bold'; font-size:10.3248px; letter-spacing:2;">CERTIFICATE</text>
			<g>
				<path style="fill:#C1E3EA;" d="M294.658,167.597h-74.569c-0.482,0-0.876-0.394-0.876-0.876l0,0c0-0.482,0.394-0.876,0.876-0.876
					h74.569c0.482,0,0.876,0.394,0.876,0.876l0,0C295.535,167.202,295.141,167.597,294.658,167.597z"/>
				<path style="fill:#C1E3EA;" d="M294.658,176.653h-74.569c-0.482,0-0.876-0.394-0.876-0.876l0,0c0-0.482,0.394-0.876,0.876-0.876
					h74.569c0.482,0,0.876,0.394,0.876,0.876l0,0C295.535,176.258,295.141,176.653,294.658,176.653z"/>
				<path style="fill:#C1E3EA;" d="M294.658,185.709h-74.569c-0.482,0-0.876-0.394-0.876-0.876l0,0c0-0.482,0.394-0.876,0.876-0.876
					h74.569c0.482,0,0.876,0.394,0.876,0.876l0,0C295.535,185.314,295.141,185.709,294.658,185.709z"/>
				<path style="fill:#C1E3EA;" d="M294.658,194.765h-74.569c-0.482,0-0.876-0.394-0.876-0.876l0,0c0-0.482,0.394-0.876,0.876-0.876
					h74.569c0.482,0,0.876,0.394,0.876,0.876l0,0C295.535,194.37,295.141,194.765,294.658,194.765z"/>
				<path style="fill:#C1E3EA;" d="M294.658,203.821h-74.569c-0.482,0-0.876-0.394-0.876-0.876l0,0c0-0.482,0.394-0.876,0.876-0.876
					h74.569c0.482,0,0.876,0.394,0.876,0.876l0,0C295.535,203.426,295.141,203.821,294.658,203.821z"/>
				<path style="fill:#C1E3EA;" d="M282.552,212.876h-50.355c-0.482,0-0.876,0.394-0.876,0.876l0,0c0,0.482,0.394,0.876,0.876,0.876
					h50.355c0.482,0,0.876-0.394,0.876-0.876l0,0C283.428,213.271,283.034,212.876,282.552,212.876z"/>
			</g>
		</g>
		<g>
			<path style="opacity:0.15;fill:#E2F2F7;" d="M327.813,293.895c-4.518-4.525-5.707-12.029-2.807-17.729
				c2.886-5.673,9.223-9.44,10.669-15.638c1.504-6.445-2.802-13.774,0.431-19.548c0.966-1.725,2.5-3.048,3.76-4.571
				c5.565-6.729,5.236-16.394,4.621-25.104c2.634,5.18,4.807,10.354,6.318,15.966c1.159,4.306,1.917,9.127-0.218,13.042
				c-1.194,2.19-3.217,3.918-4.023,6.279c-1.807,5.293,3.18,10.547,3.355,16.138c0.163,5.221-3.894,10.395-2.084,15.294
				c0.837,2.267,2.806,3.949,3.785,6.158c1.609,3.629,0.269,7.82-1.079,11.554C343.044,294.199,335.464,293.969,327.813,293.895z"/>
			<g>
				<path style="fill:#FFA403;" d="M325.098,339.576h22.454c2.522,0,4.956-0.932,6.834-2.616c5.553-4.975,9.06-12.192,9.06-20.189
					v-25.953c0-1.79-1.465-3.255-3.255-3.255h-47.733c-1.79,0-3.255,1.465-3.255,3.255v25.953c0,7.997,3.508,15.214,9.06,20.189
					C320.142,338.643,322.575,339.576,325.098,339.576z"/>
				<g>
					<path style="fill:#FFA403;" d="M366.268,327.222c-8.873,0-16.092-7.219-16.092-16.091s7.219-16.091,16.092-16.091
						s16.091,7.219,16.091,16.091S375.141,327.222,366.268,327.222z M366.268,300.194c-6.031,0-10.937,4.906-10.937,10.937
						s4.906,10.937,10.937,10.937c6.031,0,10.937-4.906,10.937-10.937S372.298,300.194,366.268,300.194z"/>
				</g>
			</g>
			<path style="opacity:0.15;fill:#E2F2F7;" d="M351.34,270.508c1.053-1.902,2.108-3.832,2.661-5.934
				c0.553-2.102,0.561-4.426-0.428-6.362c-1.02-1.996-3.046-3.524-3.387-5.739c-0.244-1.585,0.449-3.157,1.238-4.553
				c1.002-1.774,2.188-3.445,3.531-4.978c-0.733,1.478-1.025,3.503-1.085,5.151c-0.044,1.206,0.118,2.47,0.795,3.469
				c0.551,0.813,1.391,1.377,2.103,2.055c2.682,2.551,3.368,6.956,1.588,10.202C357.105,266.098,353.473,269.021,351.34,270.508z"/>
		</g>
		<g>
			<polygon style="fill:#184F7C;" points="340.93,386.267 178.802,386.267 193.489,350.549 326.242,350.549 			"/>
			<polygon style="fill:#5584C3;" points="202.025,359.294 193.929,359.294 196.399,352.919 204.192,352.919 			"/>
			<polygon style="fill:#5584C3;" points="214.382,359.294 206.286,359.294 208.294,352.919 216.086,352.919 			"/>
			<polygon style="fill:#5584C3;" points="226.739,359.294 218.643,359.294 220.188,352.919 227.98,352.919 			"/>
			<polygon style="fill:#5584C3;" points="239.096,359.294 231,359.294 232.082,352.919 239.874,352.919 			"/>
			<polygon style="fill:#5584C3;" points="251.453,359.294 243.357,359.294 243.976,352.919 251.769,352.919 			"/>
			<polygon style="fill:#5584C3;" points="263.81,359.294 255.714,359.294 255.87,352.919 263.663,352.919 			"/>
			<polygon style="fill:#5584C3;" points="276.168,359.294 268.072,359.294 267.764,352.919 275.557,352.919 			"/>
			<polygon style="fill:#5584C3;" points="288.525,359.294 280.429,359.294 279.658,352.919 287.451,352.919 			"/>
			<polygon style="fill:#5584C3;" points="300.882,359.294 292.786,359.294 291.552,352.919 299.345,352.919 			"/>
			<polygon style="fill:#5584C3;" points="313.239,359.294 305.143,359.294 303.446,352.919 311.239,352.919 			"/>
			<polygon style="fill:#5584C3;" points="325.596,359.294 317.5,359.294 315.34,352.919 323.133,352.919 			"/>
			<polygon style="fill:#5584C3;" points="198.505,369.649 189.917,369.649 192.691,362.49 200.939,362.49 			"/>
			<polygon style="fill:#5584C3;" points="211.614,369.649 203.026,369.649 205.28,362.49 213.528,362.49 			"/>
			<polygon style="fill:#5584C3;" points="224.723,369.649 216.135,369.649 217.869,362.49 226.117,362.49 			"/>
			<polygon style="fill:#5584C3;" points="237.832,369.649 229.244,369.649 230.458,362.49 238.706,362.49 			"/>
			<polygon style="fill:#5584C3;" points="250.941,369.649 242.353,369.649 243.047,362.49 251.295,362.49 			"/>
			<polygon style="fill:#5584C3;" points="264.051,369.649 255.462,369.649 255.636,362.49 263.885,362.49 			"/>
			<polygon style="fill:#5584C3;" points="277.16,369.649 268.571,369.649 268.226,362.49 276.474,362.49 			"/>
			<polygon style="fill:#5584C3;" points="290.269,369.649 281.68,369.649 280.815,362.49 289.063,362.49 			"/>
			<polygon style="fill:#5584C3;" points="303.378,369.649 294.789,369.649 293.404,362.49 301.652,362.49 			"/>
			<polygon style="fill:#5584C3;" points="316.487,369.649 307.898,369.649 305.993,362.49 314.241,362.49 			"/>
			<polygon style="fill:#5584C3;" points="329.596,369.649 321.007,369.649 318.582,362.49 326.83,362.49 			"/>
			<polygon style="fill:#5584C3;" points="194.53,381.345 185.384,381.345 188.521,373.25 197.281,373.25 			"/>
			<polygon style="fill:#5584C3;" points="208.488,381.345 199.343,381.345 201.892,373.25 210.652,373.25 			"/>
			<polygon style="fill:#5584C3;" points="292.08,381.345 213.301,381.345 215.262,373.25 290.723,373.25 			"/>
			<polygon style="fill:#5584C3;" points="236.405,381.345 227.26,381.345 228.633,373.25 237.393,373.25 			"/>
			<polygon style="fill:#5584C3;" points="250.363,381.345 241.218,381.345 242.003,373.25 250.763,373.25 			"/>
			<polygon style="fill:#5584C3;" points="264.322,381.345 255.176,381.345 255.374,373.25 264.134,373.25 			"/>
			<polygon style="fill:#5584C3;" points="278.28,381.345 269.135,381.345 268.745,373.25 277.504,373.25 			"/>
			<polygon style="fill:#5584C3;" points="292.238,381.345 283.093,381.345 282.115,373.25 290.875,373.25 			"/>
			<polygon style="fill:#5584C3;" points="306.197,381.345 297.052,381.345 295.486,373.25 304.245,373.25 			"/>
			<polygon style="fill:#5584C3;" points="320.155,381.345 311.01,381.345 308.856,373.25 317.616,373.25 			"/>
			<polygon style="fill:#5584C3;" points="334.114,381.345 324.969,381.345 322.227,373.25 330.987,373.25 			"/>
			<rect x="178.802" y="386.267" style="fill:#144566;" width="162.128" height="5.179"/>
		</g>
		<g>
			<path style="fill:#D3F4E8;" d="M282.837,55.717c-5.268,0-9.556-4.287-9.556-9.556c0-5.269,4.287-9.556,9.556-9.556
				c5.269,0,9.556,4.287,9.556,9.556C292.393,51.43,288.106,55.717,282.837,55.717z M282.837,40.605
				c-3.063,0-5.556,2.493-5.556,5.556c0,3.063,2.492,5.556,5.556,5.556c3.064,0,5.556-2.492,5.556-5.556
				C288.393,43.097,285.901,40.605,282.837,40.605z"/>
		</g>
		<g>
			<path style="fill:#D3F4E8;" d="M425.737,427.455c-5.269,0-9.556-4.287-9.556-9.556c0-5.27,4.287-9.557,9.556-9.557
				c5.268,0,9.556,4.287,9.556,9.557C435.293,423.168,431.005,427.455,425.737,427.455z M425.737,412.343
				c-3.064,0-5.556,2.493-5.556,5.557c0,3.064,2.492,5.556,5.556,5.556c3.063,0,5.556-2.492,5.556-5.556
				C431.293,414.836,428.8,412.343,425.737,412.343z"/>
		</g>
		<g>
			<path style="fill:#D3F4E8;" d="M71.832,422.255c-5.269,0-9.556-4.287-9.556-9.556c0-5.27,4.287-9.557,9.556-9.557
				c5.269,0,9.556,4.287,9.556,9.557C81.388,417.968,77.101,422.255,71.832,422.255z M71.832,407.143
				c-3.063,0-5.556,2.493-5.556,5.557c0,3.064,2.492,5.556,5.556,5.556c3.063,0,5.556-2.492,5.556-5.556
				C77.388,409.636,74.896,407.143,71.832,407.143z"/>
		</g>
		<g>
			<path style="fill:#D3F4E8;" d="M95.838,462.788c-8.897,0-16.135-7.238-16.135-16.136c0-8.898,7.238-16.136,16.135-16.136
				c8.897,0,16.135,7.238,16.135,16.136C111.973,455.55,104.735,462.788,95.838,462.788z M95.838,434.517
				c-6.691,0-12.135,5.444-12.135,12.136c0,6.691,5.444,12.136,12.135,12.136s12.135-5.444,12.135-12.136
				C107.973,439.961,102.529,434.517,95.838,434.517z"/>
		</g>
		<g>
			<path style="fill:#D3F4E8;" d="M323.871,70.01c-10.222,0-18.538-8.316-18.538-18.538s8.316-18.538,18.538-18.538
				c10.222,0,18.538,8.316,18.538,18.538S334.092,70.01,323.871,70.01z M323.871,36.934c-8.017,0-14.538,6.522-14.538,14.538
				s6.521,14.538,14.538,14.538s14.538-6.522,14.538-14.538S331.887,36.934,323.871,36.934z"/>
		</g>
		<g>
			<g>
				
					<rect x="104.826" y="130.047" transform="matrix(0.7071 -0.7071 0.7071 0.7071 -59.1621 121.2629)" style="fill:#D3F4E8;" width="23.94" height="4"/>
			</g>
			<g>
				
					<rect x="114.796" y="120.076" transform="matrix(0.7071 -0.7071 0.7071 0.7071 -59.1621 121.2629)" style="fill:#D3F4E8;" width="4" height="23.94"/>
			</g>
		</g>
		<g>
			<g>
				
					<rect x="30.413" y="440.71" transform="matrix(0.7071 -0.7071 0.7071 0.7071 -300.6341 159.6419)" style="fill:#D3F4E8;" width="23.94" height="4"/>
			</g>
			<g>
				
					<rect x="40.383" y="430.739" transform="matrix(0.7071 -0.7071 0.7071 0.7071 -300.6374 159.646)" style="fill:#D3F4E8;" width="4" height="23.94"/>
			</g>
		</g>
		<g>
			<g>
				
					<rect x="443.123" y="389.746" transform="matrix(0.7071 -0.7071 0.7071 0.7071 -143.713 436.5283)" style="fill:#D3F4E8;" width="23.94" height="4"/>
			</g>
			<g>
				
					<rect x="453.093" y="379.775" transform="matrix(0.7071 -0.7071 0.7071 0.7071 -143.711 436.5547)" style="fill:#D3F4E8;" width="4" height="23.94"/>
			</g>
		</g>
		
			<ellipse transform="matrix(0.7071 -0.7071 0.7071 0.7071 -59.9986 238.0625)" style="opacity:0.49;fill:#CDF1F7;" cx="257.368" cy="191.456" rx="26.242" ry="26.242"/>
		<g>
			<path style="fill:#95DCEF;" d="M257.368,212.721c-11.726,0-21.266-9.539-21.266-21.266s9.54-21.266,21.266-21.266
				c11.726,0,21.266,9.539,21.266,21.266S269.093,212.721,257.368,212.721z M257.368,171.19c-11.175,0-20.266,9.091-20.266,20.266
				s9.091,20.266,20.266,20.266s20.266-9.091,20.266-20.266S268.543,171.19,257.368,171.19z"/>
		</g>
		<polygon style="fill:#95DCEF;" points="260.008,193.883 264.757,218.629 270.006,213.38 281.004,224.378 285.753,219.629 
			290.503,214.88 279.504,203.881 284.753,198.632 		"/>
	</g>
</g>
</svg>
