<svg xmlns="http://www.w3.org/2000/svg" version="1.1" xmlns:xlink="http://www.w3.org/1999/xlink" xmlns:svgjs="http://svgjs.dev/svgjs" width="1440" height="560" preserveAspectRatio="none" viewBox="0 0 1440 560"><g mask="url(&quot;#SvgjsMask1000&quot;)" fill="none"><rect width="1440" height="560" x="0" y="0" fill="#0e2a47"></rect><path d="M574.62 219.05L604.43 219.05L604.43 229.25L574.62 229.25z" stroke="#e73635"></path><path d="M974.64 167.49L978.7 167.49L978.7 171.55L974.64 171.55z" stroke="#037b0b"></path><path d="M854.91 426.19a30.16 30.16 0 1 0-53.45 27.94z" stroke="#e73635"></path><path d="M817.5 533.85L854.36 533.85L854.36 581.28L817.5 581.28z" stroke="#e73635"></path><path d="M54.06 211.39 a5.94 5.94 0 1 0 11.88 0 a5.94 5.94 0 1 0 -11.88 0z" fill="#d3b714"></path><path d="M401.01 282.66L449.24 282.66L449.24 292.55L401.01 292.55z" stroke="#d3b714"></path><path d="M73.6 224.01L95.74 224.01L95.74 246.15L73.6 246.15z" stroke="#037b0b"></path><path d="M1196.76 322.1L1252.65 322.1L1252.65 377.99L1196.76 377.99z" fill="#037b0b"></path><path d="M909.92 419.47L920.22 419.47L920.22 471.08L909.92 471.08z" fill="#e73635"></path><path d="M145.3 496a44.48 44.48 0 1 0 36.01-81.34z" stroke="#e73635"></path><path d="M931.87 215.34 a35.16 35.16 0 1 0 70.32 0 a35.16 35.16 0 1 0 -70.32 0z" stroke="#e73635"></path><path d="M1315.83 61.7a14.55 14.55 0 1 0-5.06-28.65z" stroke="#037b0b"></path><path d="M1192.46 502.17 a15.32 15.32 0 1 0 30.64 0 a15.32 15.32 0 1 0 -30.64 0z" stroke="#037b0b"></path><path d="M85.84 126.9a33.67 33.67 0 1 0-41.14 53.32z" stroke="#e73635"></path><path d="M397.73 489.04L418.51 489.04L418.51 509.82L397.73 509.82z" fill="#d3b714"></path><path d="M545.56 295.28 a8.48 8.48 0 1 0 16.96 0 a8.48 8.48 0 1 0 -16.96 0z" fill="#037b0b"></path><path d="M892.74 450.59L901.16 450.59L901.16 459.01L892.74 459.01z" fill="#e73635"></path><path d="M953.97 221.12a4.65 4.65 0 1 0 8.29-4.22z" stroke="#e73635"></path><path d="M772.68 111.44L787.14 111.44L787.14 125.9L772.68 125.9z" stroke="#d3b714"></path><path d="M1273.18 273.7a17.95 17.95 0 1 0 22.97-27.59z" fill="#e73635"></path><path d="M1419.56 516.02L1433.42 516.02L1433.42 542.98L1419.56 542.98z" stroke="#d3b714"></path><path d="M268.11 372.72 a22.26 22.26 0 1 0 44.52 0 a22.26 22.26 0 1 0 -44.52 0z" fill="#e73635"></path><path d="M794.62 463.14L816.32 463.14L816.32 507.89L794.62 507.89z" stroke="#e73635"></path><path d="M1326.25 110.07a10.15 10.15 0 1 0 13.26 15.37z" fill="#d3b714"></path><path d="M63.91 515.55L97.43 515.55L97.43 561.83L63.91 561.83z" fill="#e73635"></path><path d="M1019.08 391.49L1065.81 391.49L1065.81 438.22L1019.08 438.22z" fill="#037b0b"></path><path d="M123.44 270.33L142.52 270.33L142.52 316.93L123.44 316.93z" fill="#e73635"></path><path d="M1407.33 427.86 a10.33 10.33 0 1 0 20.66 0 a10.33 10.33 0 1 0 -20.66 0z" stroke="#e73635"></path><path d="M1431.83 235.72a11.25 11.25 0 1 0 12.88 18.45z" fill="#d3b714"></path><path d="M903.02 249.35L941.69 249.35L941.69 252.69L903.02 252.69z" fill="#d3b714"></path><path d="M1365.31 390.85a53.47 53.47 0 1 0-89.61-58.36z" fill="#037b0b"></path><path d="M1111.99 371.01 a39.12 39.12 0 1 0 78.24 0 a39.12 39.12 0 1 0 -78.24 0z" fill="#e73635"></path><path d="M1128.62 230.04a20.87 20.87 0 1 0-36.51 20.24z" fill="#037b0b"></path></g><defs><mask id="SvgjsMask1000"><rect width="1440" height="560" fill="#ffffff"></rect></mask></defs></svg>